<?xml version="1.0" encoding="utf-8"?><!DOCTYPE svg PUBLIC "-//W3C//DTD SVG 1.1//EN" "http://www.w3.org/Graphics/SVG/1.1/DTD/svg11.dtd"><svg viewBox="0 0 153.87 140" xmlns="http://www.w3.org/2000/svg" xmlns:xlink="http://www.w3.org/1999/xlink"><style>:root>svg{display:none}:root>svg:target{display:block}</style><svg viewBox="0 0 8 12" id="arrow" xmlns="http://www.w3.org/2000/svg"><path fill="#C1C6CE" d="M7.237 5.642L1.729.133a.506.506 0 10-.716.716L6.163 6l-5.151 5.15a.507.507 0 00.716.717l5.509-5.509a.504.504 0 000-.716z"/></svg><svg viewBox="0 0 21 20" id="cart" xmlns="http://www.w3.org/2000/svg"><g fill="#FFF"><path d="M5.657 2.031L5.422 0H0v2h3.64l1.5 13h13.988l1.699-12.969H5.657zM17.372 13H6.922L5.888 4.031h12.66L17.372 13z"/><circle cx="6.984" cy="18" r="2"/><circle cx="15.984" cy="18" r="2"/></g></svg><svg viewBox="0 0 49 49" id="cow-icon" xmlns="http://www.w3.org/2000/svg"><g fill="#323232"><path d="M24.5 0C10.969 0 0 10.969 0 24.5S10.969 49 24.5 49 49 38.031 49 24.5 38.031 0 24.5 0zm0 47C12.093 47 2 36.906 2 24.5 2 12.093 12.093 2 24.5 2 36.906 2 47 12.093 47 24.5 47 36.906 36.906 47 24.5 47z"/><path d="M34.811 19.342c.86-1.711 1.88-4.987.433-9.482a1 1 0 00-1.825-.182c-1.271 2.268-4.038 5.927-6.047 6.094-.03.002-.054.019-.083.024A16.242 16.242 0 0024.5 15.5c-.103 0-1.311.009-2.801.292-.025-.004-.045-.019-.071-.021-2.004-.167-4.773-3.827-6.048-6.095a1 1 0 00-1.824.183c-1.448 4.494-.427 7.771.433 9.482-1.744.22-3.954.777-4.757 2.188-.388.682-.38 1.464.024 2.201.514.939 1.399 1.245 2.334 1.245.816 0 1.668-.233 2.349-.482-.004.54.026 1.08.129 1.612.288 1.496 1.131 3.636 1.748 5.197.188.479.396 1.004.509 1.324-.235.614-.672 1.812-.766 2.484-.112.801.114 2.147 1.121 3.306 1.443 1.659 4.006 2.5 7.619 2.5 3.612 0 6.176-.841 7.619-2.5 1.007-1.158 1.233-2.505 1.121-3.306-.094-.673-.53-1.87-.767-2.484.114-.319.32-.843.509-1.32.617-1.563 1.462-3.704 1.75-5.201a8.483 8.483 0 00.135-1.61c.679.248 1.528.48 2.342.48.936 0 1.82-.306 2.334-1.245.404-.737.412-1.519.024-2.201-.801-1.41-3.011-1.967-4.755-2.187zm-.953-6.634c.428 3.06-.477 5.157-1.031 6.112a9.905 9.905 0 00-.798-.872c-.544-.526-1.199-.934-1.891-1.258 1.483-1.051 2.801-2.673 3.72-3.982zm-18.716.002c.916 1.304 2.229 2.919 3.706 3.97-.701.329-1.359.744-1.892 1.283-.276.279-.533.57-.771.872-.549-.943-1.468-3.054-1.043-6.125zM11.21 22.77c-.089-.163-.063-.21-.04-.25.223-.391 1.387-1.006 3.609-1.233-.116.29-.217.582-.302.878-1.265.673-2.998 1.091-3.267.605zm21.558 2.959c-.252 1.313-1.058 3.354-1.646 4.844-.398 1.01-.609 1.552-.683 1.877l-.066.302.114.287c.283.71.711 1.908.772 2.351.001.009.096.858-.649 1.716-.72.826-2.363 1.812-6.11 1.812-3.747 0-5.391-.986-6.11-1.812-.746-.857-.651-1.707-.65-1.716.062-.441.489-1.641.772-2.352l.114-.286-.066-.302c-.072-.326-.284-.869-.683-1.881-.587-1.489-1.392-3.528-1.645-4.841-.422-2.198.379-4.575 2.145-6.358 1.513-1.528 4.933-1.868 6.123-1.871 1.166 0 4.539.339 6.139 1.886 2.081 2.014 2.465 4.597 2.129 6.344zm5.021-2.959c-.263.479-1.974.07-3.238-.592a9.437 9.437 0 00-.297-.888c2.198.23 3.354.84 3.575 1.229.024.041.05.087-.04.251z"/></g></svg><svg viewBox="0 0 32 32" id="facebook" xmlns="http://www.w3.org/2000/svg"><path fill="#FFF" d="M16 0C7.164 0 0 7.163 0 16s7.164 16 16 16c8.837 0 16-7.164 16-16S24.837 0 16 0zm4.062 9.455h-3.021v3.444h3.021v3.445h-3.021v8.61H14.02v-8.61H11v-3.445h3.021V9.455c0-1.902 1.353-3.445 3.021-3.445h3.021v3.445z"/></svg><svg id="header-logo" data-name="Layer 2" viewBox="0 0 153.87 62.29" xmlns="http://www.w3.org/2000/svg"><defs><style>.ecls-1{fill:#fff}</style></defs><path class="ecls-1" d="M59.29 42.76a3.89 3.89 0 00-2.15.37s-3 2.51-17.84-.38c-10.91-2.13-16.58-1.92-16.58-1.92s1.83-12.5 1.33-16a1 1 0 00-1.05-.91c-1.09 0-1.75.41-1.75 1A47.39 47.39 0 0121 32a6 6 0 01-6.17 3.92c-4.75-.34-5.75-3.75-6.17-6.09S8 21 9.22 18.33c0 0 7.16.25 11.66-3.58S25.13 7.58 23 6.17 15.88 5 12.05 8.5a19.38 19.38 0 00-5.05 7s-5.66-1.21-4.37-7.08C4 2.28 12.39 3 12.39 3c1.75.33 1.83.5 2.41-.08s1-2.09-1.75-2.17S2.05 2 .47 7.5c-1.69 5.83 1.43 10 5.62 10.64 0 0-2.29 10.11.54 15.11a8.9 8.9 0 008.6 4.92c1.65 0 4.57-.92 5.4-2.25 0 0-.39 3.58-.72 4.88 0 0-6.94-.1-9.11 1-3.69 1.92-2.92 6.48-1.5 8.11 1.2 1.38 4.81 2.12 7.42.89a9.92 9.92 0 005.55-7.69A39.67 39.67 0 0134.8 44.5c6.17 1.83 14.76 3.56 17.34 3.56s8-.74 8.33-2.89c.18-1.44-.34-2.17-1.18-2.41zM15.86 9.33s3.28-2.5 4.85-.94a2.14 2.14 0 01.09 2.81c-.66.87-2.4 3.59-10.66 4.94 0 0 2.6-4.56 5.72-6.81zm.27 38.9s-4.53 2.47-5-.87a3.15 3.15 0 011.69-3.57c.79-.39 1.87-.88 6.58-.71a6.29 6.29 0 01-3.27 5.15z" transform="translate(0 -.75)"/><path class="ecls-1" d="M73.58 24.48v6.77a.52.52 0 010 .11 5.65 5.65 0 01-.86 2.54 5.53 5.53 0 01-1.18 1.46c-.53.47-.88-.56-1.08-1-1.39-2.92-.72-6.82-.18-9.87.25-1.45-2.71-1.07-2.94.23a29.35 29.35 0 00-.55 7.9 1.88 1.88 0 00-1.34.74c-.51 1.09-2 4.7-3.83 3.26-1.32-1-1.46-3.75-1.6-5.27a15.54 15.54 0 01.82-6.27c-.06.18 1.14-2.82 1.67-1.7a3.61 3.61 0 01-.61 3.12c-1.57 1.18.87 1.67 1.82 1 1.8-1.36 3-5.71-.07-6.23-3.47-.58-5.44 2.92-6.17 5.69a18.21 18.21 0 00-.5 4.89c-.48.83-2.1 3.53-3.05 4-1.12.58-1.1-.23-1.06-.75s.54-5.15.81-8.28a5.74 5.74 0 00-.5-3.64c-.43-.88-4-2.83-7.14.83a12 12 0 00-3.08 7.06c-.21.42-.44.87-.71 1.36-1.5 2.75-3.39 3.91-4.06 2a15.26 15.26 0 01-.75-6.19 38.64 38.64 0 005.03-11.74c1.53-6.75 1.25-10.06.44-10.63s-4.25-1.93-6.32 6.25A53.37 53.37 0 0035 30c-.32.69-.72 1.5-1.23 2.44-1.5 2.75-3.38 3.91-4.06 2a15.26 15.26 0 01-.71-6.19 38.64 38.64 0 005.05-11.75c1.56-6.75 1.25-10.06.44-10.63s-4.25-1.93-6.31 6.25-2.47 17.13-.5 23.13c0 0 1.08 3.37 3.1 3.12 1.67-.2 3.66-1.84 4.83-4.9.14.61.3 1.21.49 1.78 0 0 1.08 3.37 3.1 3.12 1.37-.17 3-1.32 4.14-3.42.71 1.84 2.24 3.34 4.21 3 2.67-.48 3.22-1.94 3.22-1.94s-.05 2.39 1.66 2.39c1.52 0 2.73-.89 3.93-3.16.41-.77.65-1.22.78-1.48.35 2.14 1.24 4 3 4.83 3 1.3 5.62-1.17 7.16-3.61a4.31 4.31 0 002.46 2.62 3.75 3.75 0 003.78-.93v3.52a2.64 2.64 0 00-1.55.41 11.74 11.74 0 00-4.19 10.52 3.23 3.23 0 004.72 2.66c3.1-1.35 3.57-6 3.83-8.83.63-6.83.14-13.94.14-20.79-.01-1.31-2.91-.71-2.91.32zm-43.33-11.2c.69-2.65 1.33-3.72 2-3.72s.93.72.47 3-2 8.63-4.1 12.75c-.04 0 .94-9.37 1.63-12.03zm8.42 0c.69-2.65 1.33-3.72 1.95-3.72s.94.72.47 3-2 8.63-4.09 12.75c0 0 1-9.37 1.67-12.03zm12.86 12.43a62.13 62.13 0 01-1 6.29c-.5 2-1 2.78-2.58 3.44S45.55 34 45.55 34c-1.15-3.21.39-6 1.67-7.92s2.57-2.1 3.31-2a1.35 1.35 0 011 1.63zm22 18a18 18 0 01-1.58 7.81c-.7.15-1-.11-1.24-1.23a10.72 10.72 0 010-3.25 9 9 0 012.78-5.16c.02.66.02 1.27.01 1.88zM92.3 21.65a10.77 10.77 0 01-5.71-6c-1.28-3.83 2.92-6.65 6.27-6.47s5.14 3.62 5 6.7c-.06 1.1-.75 3.56-2.1 2.28a6.35 6.35 0 01-1.56-3.63c-.2-1.21-3.1-.5-2.9.78.58 3.65 4.52 7.68 7.9 3.86a7.35 7.35 0 00-2.61-11.23 10.22 10.22 0 00-12.53 4.32c-2.73 4.85 2.75 9.6 6.63 11.32 6.23 3.34 6.46 14.06-1.82 14.13a8.34 8.34 0 01-7.69-5.61c-.57-1.69-.28-7.55 2-8 1.81-.36 1.32-2-.45-1.7-3.71.73-5.08 5.52-4.72 8.86.58 5.34 5.58 8.34 10.63 8.3A9.57 9.57 0 0098.28 32a9.35 9.35 0 00-5.98-10.35z" transform="translate(0 -.75)"/><path class="ecls-1" d="M110.88 37.53c-2.88-1.53-1.22-7.53-.79-9.87.28-1.49 1.55-3.8-.49-4.3-2.39-.58-5.23 1.69-7.28 3.86a50.58 50.58 0 01.55-7.48 15.58 15.58 0 007.18-7.39c1.3-2.61 1.94-8-2.46-6.43-4 1.41-5.37 6-6.62 9.69A30.15 30.15 0 0099.88 20c-.4.16-.8.31-1.22.44-1.66.51-1.44 1.41.24.89l.81-.26c-.8 5.61-.26 11.49.25 17 0 .54 3 0 2.89-.78-.22-2.47-.41-4.92-.49-7.36a1.48 1.48 0 00.63-.39 22.58 22.58 0 013.08-3.18c.3-.26.61-.51.92-.75l.46-.34c.67-.53.8-.54.38 0a28 28 0 01-.62 2.83c-.55 3-2.13 8.89 1.34 10.78.75.37 3.45-.75 2.33-1.35zm-6.49-24.1c.31-.9.72-1.77 1.1-2.63.47-1.09 1.73-4.77 2.64-3 .73 1.41-.42 3.72-.93 5.07a11.86 11.86 0 01-4 5.29 37.35 37.35 0 011.19-4.73z" transform="translate(0 -.75)"/><path class="ecls-1" d="M121.64 30.53c0-3.29-.38-7.51-4.31-7.87-4.31-.39-6 4.13-6.06 7.49a.58.58 0 00.35.57c0 3.15.76 7.26 4.51 7.2 4.18-.07 5.5-3.71 5.51-7.39zm-5 5.47c-2.44-1-2.22-5.2-2.06-7.24a.52.52 0 00-.24-.52c.3-2 1.08-5 2.86-3.51 1.42 1.21 1.45 4.15 1.52 5.84.06 1.14-.1 6.22-2.08 5.43zM153.13 48.58c-1.12-2.89-3.58-4-6.29-4.13a11.52 11.52 0 00-1.13-2.07c-3.91-5.79-13.19-5-19.48-2 0-.91-.09-1.83-.12-2.73a7.3 7.3 0 006.5-3c1.67-2.39 1.43-6.63.77-9.31s-3.08-2.07-4.93-1.24a8.14 8.14 0 00-1.86 1.26c0-.67.11-1.34.16-2 .11-1.54-2.84-1.15-2.94.2-.45 6.2-.3 12.37-.44 18.54A14.77 14.77 0 00118 54.2c0 2.27 1.93 4 4 2.39 2.89-2.22 3.77-6.63 4.17-10a31.09 31.09 0 00.16-4.53A14 14 0 01141.5 42a7 7 0 012.26 2.69 18.29 18.29 0 00-4.62 1.49c-1.71.82-4.25 2.76-4.13 4.93a3 3 0 002.29 3 1.26 1.26 0 00.3.08c6.13 1 10.7-2.62 9.82-7.73 3 1.62 4.11 5.4 3.05 8.66-2.39 7.3-11.59 8.93-16.95 4.05-.58-.52-3.19.58-2.73 1 7.78 7.03 27.06.48 22.34-11.59zm-29.94-1.77a15.66 15.66 0 01-1.14 5.19c-.25.54-.52 1.07-.8 1.6 0 0-.26.06-.32-.72a14.3 14.3 0 012.35-7.89c-.03.57-.05 1.19-.09 1.82zM126.32 29a.84.84 0 00.15-.18 14.34 14.34 0 011.9-2.5 7.63 7.63 0 011.81-1.54c.32.16.65 1 .77 2.13.31 2.77.44 10.1-3.94 9.41a2.23 2.23 0 00-1 .17c-.01-2.57.13-5.06.31-7.49zm13.08 23.69h-.05c-1.69-.4-1.51-2-1.29-3.09.49-2.52 3.57-3.88 6.11-4 1.29 3.61.3 7.91-4.77 7.09z" transform="translate(0 -.75)"/></svg><svg viewBox="0 0 15 13" id="heart" xmlns="http://www.w3.org/2000/svg"><path fill="#FFF" d="M10.799 0c-1.35 0-2.551.65-3.3 1.661A4.097 4.097 0 004.199 0C1.875 0 0 1.806 0 4.044 0 7.223 7.499 13 7.499 13s7.499-5.777 7.499-8.956C14.998 1.806 13.123 0 10.799 0z"/></svg><svg viewBox="0 0 61 61" id="hot" xmlns="http://www.w3.org/2000/svg"><circle fill="#FFF" cx="30.5" cy="30.5" r="30.5"/><g fill="#231F20"><path d="M19.985 18.27c-.915 2.683-1.718 5.384-2.472 8.094-.543-2.863-.921-5.756-.958-8.715-.005-.431-1.939-.11-1.932.518.052 4.243.8 8.354 1.747 12.432-1.196 4.58-2.311 9.18-3.579 13.771-.109.394 1.771.138 1.904-.344.902-3.265 1.726-6.535 2.556-9.8.805 3.204 1.644 6.407 2.273 9.657.098.508 2.041.045 1.932-.518-.864-4.462-2.12-8.836-3.146-13.247 1.068-4.086 2.202-8.157 3.578-12.191.124-.361-1.737-.145-1.903.343zM34.395 18.798c.049-1.047-1.919-.794-1.963.128-.004.08-.004.159-.008.238-.039.065-.084.128-.101.204-1.004 4.463-2.611 8.729-4.056 13.06-.644 1.93-1.139 3.898-1.666 5.856-.139-6.623-.135-13.237-.165-19.871-.005-1.042-1.965-.769-1.961.134.037 8.337.018 16.641.303 24.971a.644.644 0 00-.034.301l.064.445c.123.856 1.959.48 1.944-.317.005-.011.016-.018.021-.029 1.636-4.171 2.478-8.591 3.894-12.838.521-1.558 1.048-3.108 1.561-4.662-.071 5.987.058 11.969.211 17.961.026 1.012 1.58.771 1.91.065l.056-.119c.112-.239.088-.423-.015-.558-.211-8.333-.389-16.635.005-24.969zM47.32 17.66c-3.158.38-6.312.227-9.478.048-.491-.028-2.24.851-1.221.908 1.093.062 2.182.109 3.271.145-.093.081-.161.167-.157.265.295 8.408-1.054 17.239.191 25.564.063.424 2.01.005 1.932-.518-1.229-8.229.069-16.951-.185-25.27 1.776.012 3.551-.052 5.33-.266.857-.102 1.669-1.039.317-.876z"/></g></svg><svg data-name="Layer 1" viewBox="0 0 108 38" id="htmlacademy" xmlns="http://www.w3.org/2000/svg"><path d="M46.84 28.22a2.07 2.07 0 00.58-.11v1.4a3.41 3.41 0 01-1.24.22 1.75 1.75 0 01-1.75-1 5.08 5.08 0 01-3.3 1.13c-1.59 0-3.06-.87-3.06-2.68 0-2.24 2.08-2.93 3.9-2.93a11.63 11.63 0 012.28.26v-.31c0-1.09-.8-1.86-2.3-1.86a7.79 7.79 0 00-3.15.67v-1.79a10.72 10.72 0 013.35-.58c2.48 0 4 1.18 4 3.83v3.14a.57.57 0 00.69.61zm-6.76-1.19a1.42 1.42 0 001.64 1.29 3.56 3.56 0 002.53-1v-1.51a10.21 10.21 0 00-1.9-.22c-1.1.01-2.27.35-2.27 1.45zM53.06 20.62a5.29 5.29 0 012.7.67v1.79a4.28 4.28 0 00-2.42-.73 2.89 2.89 0 100 5.76 5.26 5.26 0 002.55-.67v1.8a6.58 6.58 0 01-2.9.6 4.42 4.42 0 01-4.72-4.54 4.54 4.54 0 014.79-4.68zM65.84 28.22a2.07 2.07 0 00.58-.11v1.4a3.41 3.41 0 01-1.24.22 1.75 1.75 0 01-1.75-1 5.08 5.08 0 01-3.3 1.13c-1.59 0-3.06-.87-3.06-2.68 0-2.24 2.08-2.93 3.9-2.93a11.63 11.63 0 012.28.26v-.31c0-1.09-.8-1.86-2.3-1.86a7.79 7.79 0 00-3.15.67v-1.79a10.72 10.72 0 013.35-.58c2.48 0 4 1.18 4 3.83v3.14a.57.57 0 00.69.61zm-6.76-1.19a1.42 1.42 0 001.64 1.29 3.56 3.56 0 002.53-1v-1.51a10.21 10.21 0 00-1.9-.22c-1.11.01-2.27.35-2.27 1.45zM76.67 16.85v12.76h-1.76v-1.39a4.07 4.07 0 01-3.35 1.62 4.62 4.62 0 010-9.22 4 4 0 013.15 1.37v-5.14h2zm-4.76 5.48a2.9 2.9 0 000 5.8 3 3 0 002.79-1.84v-2.13a3.06 3.06 0 00-2.79-1.83zM82.99 20.62c3.48 0 4.68 2.81 4.12 5.34h-6.58c.22 1.57 1.75 2.22 3.35 2.22a6.41 6.41 0 002.77-.62v1.68a7.5 7.5 0 01-3.14.6c-2.68 0-5-1.53-5-4.61a4.39 4.39 0 014.48-4.61zm.09 1.62a2.39 2.39 0 00-2.57 2.26h4.85a2.06 2.06 0 00-2.28-2.26zM89.1 29.61v-8.75h1.73v1.09a4 4 0 012.92-1.33 3 3 0 012.73 1.4 4.33 4.33 0 013.06-1.4 3.21 3.21 0 013.32 3.52v5.47h-2V24.2a1.67 1.67 0 00-1.73-1.84 2.94 2.94 0 00-2.17 1.18V29.61h-2V24.2a1.67 1.67 0 00-1.73-1.84 3.11 3.11 0 00-2.32 1.35v5.91h-2zM111.47 20.86h2l-4.1 9.93c-.95 2.28-2.19 3-3.52 3a5 5 0 01-1.15-.15v-1.66a3 3 0 00.89.13c.95 0 1.66-.67 2.17-2l.18-.44-4.16-8.82h2.13l3 6.6zM40.66 1.53v5a4 4 0 012.83-1.2A3.41 3.41 0 0147.1 8.9v5.41h-2V9.15a1.9 1.9 0 00-2-2.1 3.08 3.08 0 00-2.44 1.46v5.8h-2V1.53h2zM52.43 2.42v3.12h3.17v1.71h-3.17v4c0 1.15.53 1.53 1.66 1.53a4.71 4.71 0 001.77-.35v1.68a7.14 7.14 0 01-2.35.38 2.68 2.68 0 01-3-2.88V7.23h-1.6V5.52h1.57V2.88zM58.1 14.29V5.54h1.73v1.09a4 4 0 012.92-1.33 3 3 0 012.73 1.4 4.33 4.33 0 013.06-1.4 3.21 3.21 0 013.32 3.52v5.47h-2V8.88a1.67 1.67 0 00-1.73-1.84 2.94 2.94 0 00-2.17 1.18V14.29h-2V8.88a1.67 1.67 0 00-1.73-1.84 3.11 3.11 0 00-2.32 1.35v5.91h-2zM74.72 1.52h1.95v12.76h-1.95zM15.44.02h-.16L0 1.62v28l15.28 9.09 15.28-9.09v-28zm13.12 28.45l-13.28 7.9L2 28.47V16.99l13.22 7.87v1.43l-9.07-5.4v1.38l9.11 5.47v1.46l-9.1-5.42v1.38l9.11 5.47 9.19-5.5V19.22l4.1-2.45v11.67zm0-13.16l-3.65 2.14-1.68 1-8-4.76v1.38l6.84 4.07h-.06l-.15.09-1 .57-5.64-3.36v1.38l4.45 2.65-1.05.7-3.36-2v1.38l2.21 1.3-2.25 1.35-13.16-7.82 13.17-7.92zm0-1.39L15.21 6.05l-13.2 7.86V3.41l13.28-1.39 13.28 1.39v10.51z" fill="#fff"/></svg><svg viewBox="0 0 49 49" id="icecream-icon" xmlns="http://www.w3.org/2000/svg"><g fill="#323232"><path d="M24.5 0C10.969 0 0 10.969 0 24.5S10.969 49 24.5 49 49 38.031 49 24.5 38.031 0 24.5 0zm0 47C12.093 47 2 36.906 2 24.5 2 12.093 12.093 2 24.5 2 36.906 2 47 12.093 47 24.5 47 36.906 36.906 47 24.5 47z"/><path d="M24.5 7.625c-4.355 0-7.94 3.278-8.436 7.5H16v16.917h17V15.125h-.063c-.497-4.222-4.082-7.5-8.437-7.5zM31 30.042H18v-9.257c.275.337.705.631 1.542.631 1.292 0 2.125-.713 2.125-1.625v-.875a.854.854 0 111.708 0c0 .009-.005.017-.005.025 0 .007.005.01.005.017v3.292s-.031 1.833 2.125 1.833c2.109 0 2.125-1.75 2.125-1.75v-2.25h.001l-.001-.005a1.344 1.344 0 012.688 0c0 .031.021.088.021.088s.034.609.667.894v8.982zM23 40.125a1.5 1.5 0 103 0V33h-3v7.125z"/></g></svg><svg viewBox="0 0 32 32" id="instagram" xmlns="http://www.w3.org/2000/svg"><g fill="#FFF"><path d="M20.916 16a4.938 4.938 0 01-9.877 0c0-.394.051-.773.138-1.14h-.897v6.838h11.396V14.86h-.897c.086.367.137.746.137 1.14z"/><path d="M15.978 18.659c1.466 0 2.659-1.193 2.659-2.659s-1.193-2.659-2.659-2.659c-1.466 0-2.659 1.193-2.659 2.659s1.192 2.659 2.659 2.659zM18.637 10.302h3.039v3.039h-3.039z"/><path d="M16 0C7.164 0 0 7.164 0 16c0 8.837 7.164 16 16 16 8.837 0 16-7.163 16-16 0-8.836-7.163-16-16-16zm7.955 21.698a2.285 2.285 0 01-2.279 2.279H10.279A2.285 2.285 0 018 21.698V10.302a2.286 2.286 0 012.279-2.279h11.396a2.286 2.286 0 012.279 2.279v11.396z"/></g></svg><svg viewBox="0 0 49 49" id="leaf-icon" xmlns="http://www.w3.org/2000/svg"><g fill="#323232"><path d="M24.5 0C10.969 0 0 10.969 0 24.5S10.969 49 24.5 49 49 38.031 49 24.5 38.031 0 24.5 0zm0 47C12.093 47 2 36.906 2 24.5 2 12.093 12.093 2 24.5 2 36.906 2 47 12.093 47 24.5 47 36.906 36.906 47 24.5 47z"/><path d="M34.807 26.756c-.45-9.493-9.197-18.693-9.586-19.097-.015-.015-.033-.023-.048-.037a.942.942 0 00-.118-.09.945.945 0 00-.13-.077c-.018-.009-.032-.022-.051-.03-.027-.011-.056-.011-.083-.02a.898.898 0 00-.297-.044c-.045 0-.089.002-.134.008a.957.957 0 00-.158.038c-.025.008-.052.008-.076.018-.018.007-.031.021-.049.029a.896.896 0 00-.133.079.95.95 0 00-.118.091c-.015.013-.033.021-.046.036-.389.404-9.14 9.608-9.587 19.105-.008.067-.017.133-.011.202-.013.363-.017.727-.003 1.091.369 10.256 9.978 12.82 10.075 12.845a.995.995 0 00.494 0c.097-.024 9.706-2.589 10.074-12.845.013-.363.009-.727-.003-1.089.006-.073-.004-.142-.012-.213zM16.783 23.25c2.219 2.058 5.368 3.521 6.717 4.091v4.552c-2.448-1.196-6.219-3.341-7.302-5.228a17.06 17.06 0 01.585-3.415zm2.024-5.096c1.513 1.688 3.602 2.646 4.693 3.059v3.94c-1.654-.76-4.424-2.216-6.016-4.043a29.164 29.164 0 011.323-2.956zm12.711 2.954c-1.59 1.824-4.362 3.283-6.018 4.044v-3.939c1.092-.413 3.183-1.372 4.695-3.062.489.949.935 1.94 1.323 2.957zM25.5 19.047v-8.008a45.239 45.239 0 013.651 5.229c-.953 1.374-2.536 2.276-3.651 2.779zm0 12.846v-4.552c1.35-.569 4.499-2.034 6.719-4.092.305 1.128.515 2.273.584 3.417-1.083 1.883-4.855 4.029-7.303 5.227zm-2-12.843c-1.113-.5-2.694-1.399-3.649-2.779a45.379 45.379 0 013.649-5.229v8.008zm-7.117 10.775c2.328 1.983 5.69 3.629 7.117 4.281v4.403c-2.092-.904-6.162-3.331-7.117-8.684zm9.117 8.696v-4.415c1.428-.653 4.792-2.3 7.121-4.284-.95 5.411-5.02 7.813-7.121 8.699z"/></g></svg><svg viewBox="0 0 21 19" id="login" xmlns="http://www.w3.org/2000/svg"><image overflow="visible" width="21" height="19" xmlns:xlink="http://www.w3.org/1999/xlink" xlink:href="Вход.png"/><g fill="#FFF"><path d="M6 14.875L12.917 9.5 6 4.125v2.917H-.042v4.917H6z"/><path d="M18 0H5C3.9 0 3 .9 3 2v2h2V2h13v15H5v-2H3v2c0 1.1.9 2 2 2h13c1.1 0 2-.9 2-2V2c0-1.1-.9-2-2-2z"/></g></svg><svg viewBox="0 0 17 17" id="magnifier" xmlns="http://www.w3.org/2000/svg"><image overflow="visible" width="17" height="17" xmlns:xlink="http://www.w3.org/1999/xlink" xlink:href="Лупа.png"/><path fill="#FFF" d="M16.958 15.527L11.75 10.32A6.455 6.455 0 0013 6.5 6.5 6.5 0 106.5 13a6.465 6.465 0 003.839-1.263l5.205 5.204 1.414-1.414zM6.5 11C4.019 11 2 8.981 2 6.5S4.019 2 6.5 2 11 4.019 11 6.5 8.981 11 6.5 11z"/></svg><svg viewBox="0 0 80 140" id="pin" xmlns="http://www.w3.org/2000/svg"><path fill="#E84D37" d="M40 7.101c15.622 0 28.285 12.664 28.285 28.286 0 5.112-1.362 9.902-3.734 14.041 4.503.643 7.971 4.506 7.971 9.188a9.292 9.292 0 01-9.293 9.293c-4.682 0-8.545-3.467-9.188-7.971-.353.201-.709.396-1.07.583-1.012 6.26-6.426 11.045-12.971 11.045-6.546 0-11.96-4.786-12.972-11.046a29.753 29.753 0 01-1.069-.582c-.644 4.504-4.505 7.971-9.188 7.971-5.132 0-9.292-4.161-9.292-9.293 0-4.682 3.466-8.544 7.97-9.188a28.146 28.146 0 01-3.735-14.041C11.714 19.765 24.378 7.101 40 7.101m0-7C20.543.101 4.714 15.93 4.714 35.387c0 3.646.568 7.263 1.668 10.713C2.763 49.116.479 53.652.479 58.615c0 8.984 7.309 16.294 16.292 16.294 3.157 0 6.141-.925 8.672-2.529 3.681 3.846 8.86 6.187 14.557 6.187s10.875-2.341 14.556-6.187a16.181 16.181 0 008.673 2.529c8.984 0 16.293-7.31 16.293-16.294 0-4.962-2.284-9.499-5.903-12.516a35.317 35.317 0 001.667-10.713C75.285 15.93 59.456.101 40 .101z"/><path fill="#E84D37" d="M63.229 78.908c-2.835 0-5.56-.598-8.04-1.681-.371.3-.761.574-1.149.851l.525.525-3.898 3.898-1.673-1.673c-.687.273-1.386.517-2.101.728l2.359 2.359-3.898 3.898-3.898-3.898 1.556-1.556c-.989.122-1.989.206-3.011.206-.988 0-1.958-.079-2.917-.194l1.543 1.544-3.898 3.898-3.898-3.898 2.339-2.34a23.605 23.605 0 01-2.104-.724L29.417 82.5l-3.898-3.898.49-.489c-.405-.288-.811-.575-1.197-.887a20.059 20.059 0 01-8.039 1.681c-.204 0-.401-.024-.603-.03a3.467 3.467 0 00.16 1.622l20.375 57.125c.024.068.059.128.087.193.03.07.058.139.092.206.07.14.15.271.237.397.029.042.054.087.084.129.125.166.262.32.412.459.032.03.069.055.103.084.125.107.254.205.392.294.058.037.118.07.179.104.138.077.279.145.426.202.038.015.07.038.108.052.02.007.04.009.059.016.127.043.258.074.391.103.055.012.109.029.164.038.185.03.373.048.562.048s.377-.018.562-.048c.057-.009.113-.027.17-.04.13-.027.259-.058.384-.101.021-.007.041-.009.061-.016.04-.014.072-.037.111-.053.145-.058.285-.124.421-.2a3.34 3.34 0 00.183-.106c.136-.088.265-.186.388-.291.034-.03.072-.056.105-.086.15-.14.287-.294.412-.46.03-.04.054-.084.082-.125.088-.128.169-.261.24-.401.033-.066.062-.134.09-.201.028-.066.064-.128.089-.197L63.672 80.5a3.467 3.467 0 00.16-1.622c-.202.006-.399.03-.603.03zM49.252 94.541l-3.898 3.898-3.898-3.898 3.898-3.898 3.898 3.898zm-13.109 5.313l3.898-3.898 3.898 3.898-3.898 3.898-3.898-3.898zm7.796 10.625l-3.898 3.898-3.898-3.898 3.898-3.898 3.898 3.898zM40.041 85.33l3.898 3.898-3.898 3.898-3.898-3.898 3.898-3.898zm-1.414 9.211l-3.898 3.898-3.898-3.898 3.898-3.898 3.898 3.898zM23.724 80.397l.38-.38 3.898 3.898-2.229 2.229-2.049-5.747zm2.793 7.832l2.899-2.899 3.898 3.898-3.898 3.898-1.791-1.791-1.108-3.106zm2.794 7.832l.105-.105 3.898 3.898-1.954 1.954-2.049-5.747zm4.205 11.792l-1.413-3.96 2.625-2.625 3.898 3.898-3.898 3.898-1.212-1.211zm3.431 9.618l-1.863-5.223 3.543 3.543-1.68 1.68zm3.053 8.56l-2.31-6.476 2.351-2.351 2.29 2.29L40 126.031zm3.074-8.621l-1.619-1.619 3.415-3.415-1.796 5.034zm3.364-9.431l-1.085 1.085-3.898-3.898 3.898-3.898 2.564 2.564-1.479 4.147zm2.223-6.232l-1.894-1.894 3.898-3.898.046.045-2.05 5.747zm3.668-10.283l-1.663 1.663-3.898-3.898 3.898-3.898 2.838 2.838-1.175 3.295zm1.919-5.38l-2.168-2.168 3.898-3.898.319.319-2.049 5.747z"/></svg><svg viewBox="0 0 49 49" id="thermometer" xmlns="http://www.w3.org/2000/svg"><g fill="#323232"><path d="M24.5 0C10.969 0 0 10.969 0 24.5S10.969 49 24.5 49 49 38.031 49 24.5 38.031 0 24.5 0zm0 47C12.093 47 2 36.906 2 24.5 2 12.093 12.093 2 24.5 2 36.906 2 47 12.093 47 24.5 47 36.906 36.906 47 24.5 47z"/><path d="M28.938 13.125c0-2.774-2.257-5.031-5.031-5.031s-5.031 2.257-5.031 5.031v14.64a7.042 7.042 0 00-2 4.923c0 3.929 3.196 7.125 7.125 7.125s7.125-3.196 7.125-7.125a7.127 7.127 0 00-2.188-5.126V13.125zm.187 19.563a5.126 5.126 0 01-10.25 0c0-1.647.792-3.098 2-4.035V13.125a3.031 3.031 0 116.062 0v15.372a5.114 5.114 0 012.188 4.191z"/><path d="M25 29.559V13.188a1 1 0 10-2 0v16.371a2.99 2.99 0 00-2 2.816 3 3 0 106 0 2.99 2.99 0 00-2-2.816zM31 12h6v2h-6zM31 16h6v2h-6zM31 20h6v2h-6zM31 24h6v2h-6z"/></g></svg><svg viewBox="0 0 32 32" id="twitter-icon" xmlns="http://www.w3.org/2000/svg"><path fill="#FFF" d="M16 0C7.164 0 0 7.164 0 16c0 8.837 7.164 16 16 16 8.837 0 16-7.163 16-16 0-8.836-7.163-16-16-16zm7.944 12.809c-.251 6.516-3.463 10.832-10.992 10.702h-.486c-.447 0-4.543-.443-5.344-1.823 2.479.19 4.247-.406 5.12-1.136-1.048-.289-2.923-.461-3.251-2.848.384.104.618.221 1.299.113-1.307-.824-2.758-1.519-2.679-3.643.311.317 1.164.518 1.46.457-.768-.233-2.149-3.244-.974-4.781 1.984 1.79 4.075 3.482 7.804 3.643.227-2.214 1.24-3.699 3.168-4.325 1.84-.479 3.255.26 3.901 1.138.737-.224 1.453-.466 2.193-.685-.004.833-.569 1.463-.935 1.709.747.165 1.423-.475 1.423-.475-.184.963-1.094 1.725-1.707 1.954z"/></svg><svg viewBox="0 0 32 32" id="vkontakte" xmlns="http://www.w3.org/2000/svg"><g fill="#FFF"><path d="M16.637 14.495c.402-.019.719-.082.951-.188.326-.145.54-.33.641-.559.101-.229.15-.496.15-.797 0-.232-.058-.465-.174-.697-.116-.232-.322-.405-.617-.517-.264-.1-.592-.155-.984-.165a76.242 76.242 0 00-1.652-.014h-.339v2.965h.565c.571 0 1.057-.009 1.459-.028zM18.118 17.084c-.282-.081-.672-.125-1.166-.132a127.97 127.97 0 00-1.55-.009h-.79v3.493h.264c1.014 0 1.74-.003 2.18-.009a3.2 3.2 0 001.212-.245c.377-.157.633-.364.774-.625s.214-.562.214-.9c0-.446-.088-.788-.261-1.03-.17-.241-.464-.423-.877-.543z"/><path d="M16 0C7.164 0 0 7.164 0 16c0 8.837 7.164 16 16 16 8.837 0 16-7.163 16-16 0-8.836-7.163-16-16-16zm6.602 20.531a3.73 3.73 0 01-1.124 1.327c-.552.415-1.161.71-1.823.886s-1.501.264-2.519.264h-6.121V8.987h5.443c1.13 0 1.957.038 2.48.113a5.126 5.126 0 011.561.5c.533.27.929.632 1.189 1.087.26.455.392.975.392 1.558 0 .678-.179 1.278-.536 1.795-.358.518-.863.92-1.517 1.208v.075c.917.182 1.642.559 2.179 1.13.537.571.807 1.325.807 2.261 0 .678-.138 1.283-.411 1.817z"/></g></svg></svg>